<svg width="61" height="60" viewBox="0 0 61 60" fill="none" xmlns="http://www.w3.org/2000/svg">
<path d="M26.1891 35.4434C23.5164 33.2007 21.3347 30.4533 19.644 27.2012C17.9533 23.9492 17.0028 20.4015 16.7925 16.5582C16.7488 16.0583 16.8789 15.6272 17.183 15.2648C17.4871 14.9024 17.8891 14.6993 18.389 14.6556L24.0805 14.2206C24.5387 14.1805 24.9416 14.2869 25.289 14.5398C25.6364 14.7928 25.8605 15.1352 25.9613 15.5671L27.3937 21.864C27.4608 22.1519 27.4637 22.4245 27.4023 22.6818C27.3408 22.939 27.2151 23.1809 27.025 23.4074L23.775 27.2806C24.4076 28.2746 25.1104 29.231 25.8834 30.1498C26.6564 31.0686 27.5185 31.9271 28.4698 32.7253C29.4212 33.5236 30.4163 34.2235 31.4554 34.8252C32.4944 35.4269 33.5584 35.953 34.6471 36.4034L37.8972 32.5302C38.0872 32.3037 38.3036 32.1378 38.5462 32.0327C38.7889 31.9275 39.0578 31.883 39.353 31.8991L45.803 32.2163C46.2458 32.2405 46.622 32.4017 46.9314 32.7C47.2408 32.9982 47.4156 33.3764 47.4557 33.8346L48.0156 39.5153C48.0594 40.0151 47.9292 40.4463 47.6251 40.8087C47.321 41.1711 46.919 41.3741 46.4191 41.4179C42.6203 41.8971 38.9672 41.5819 35.4596 40.4721C31.952 39.3623 28.8619 37.6861 26.1891 35.4434Z" fill="#FEF7FF"/>
</svg>
