<svg width="29" height="29" viewBox="0 0 29 29" fill="none" xmlns="http://www.w3.org/2000/svg">
<path d="M14.4998 26.5832C14.2179 26.5832 13.9762 26.5026 13.7748 26.3415C13.5734 26.1804 13.4224 25.9689 13.3217 25.7071C12.9391 24.5793 12.4557 23.5221 11.8717 22.5353C11.3078 21.5484 10.5123 20.3905 9.48525 19.0613C8.45817 17.7321 7.62241 16.4634 6.97796 15.255C6.35366 14.0467 6.0415 12.5866 6.0415 10.8748C6.0415 8.51859 6.85713 6.52484 8.48838 4.89359C10.1398 3.2422 12.1436 2.4165 14.4998 2.4165C16.8561 2.4165 18.8498 3.2422 20.4811 4.89359C22.1325 6.52484 22.9582 8.51859 22.9582 10.8748C22.9582 12.7075 22.6057 14.238 21.9009 15.4665C21.2162 16.6748 20.4207 17.8731 19.5144 19.0613C18.4269 20.5113 17.6012 21.7196 17.0373 22.6863C16.4936 23.6328 16.0405 24.6398 15.678 25.7071C15.5773 25.9891 15.4162 26.2106 15.1946 26.3717C14.9932 26.5127 14.7616 26.5832 14.4998 26.5832ZM14.4998 22.2634C14.8422 21.5787 15.2248 20.904 15.6478 20.2394C16.0908 19.5748 16.7353 18.6887 17.5811 17.5811C18.4471 16.4533 19.1519 15.4162 19.6957 14.4696C20.2596 13.503 20.5415 12.3047 20.5415 10.8748C20.5415 9.20331 19.9474 7.78352 18.7592 6.61546C17.5912 5.42727 16.1714 4.83317 14.4998 4.83317C12.8283 4.83317 11.3984 5.42727 10.2103 6.61546C9.0422 7.78352 8.45817 9.20331 8.45817 10.8748C8.45817 12.3047 8.73005 13.503 9.2738 14.4696C9.83768 15.4162 10.5526 16.4533 11.4186 17.5811C12.2644 18.6887 12.8988 19.5748 13.3217 20.2394C13.7648 20.904 14.1575 21.5787 14.4998 22.2634ZM14.4998 13.8957C15.3457 13.8957 16.0606 13.6037 16.6446 13.0196C17.2287 12.4356 17.5207 11.7207 17.5207 10.8748C17.5207 10.029 17.2287 9.31407 16.6446 8.73004C16.0606 8.14602 15.3457 7.854 14.4998 7.854C13.654 7.854 12.9391 8.14602 12.355 8.73004C11.771 9.31407 11.479 10.029 11.479 10.8748C11.479 11.7207 11.771 12.4356 12.355 13.0196C12.9391 13.6037 13.654 13.8957 14.4998 13.8957Z" fill="#FEF7FF"/>
</svg>
