<svg width="22" height="22" viewBox="0 0 22 22" fill="none" xmlns="http://www.w3.org/2000/svg">
<path d="M14.0252 15.3085L15.3085 14.0252L11.9168 10.6335V6.41683H10.0835V11.3668L14.0252 15.3085ZM11.0002 20.1668C9.73211 20.1668 8.54044 19.9262 7.42516 19.445C6.30988 18.9637 5.33975 18.3106 4.51475 17.4856C3.68975 16.6606 3.03662 15.6904 2.55537 14.5752C2.07412 13.4599 1.8335 12.2682 1.8335 11.0002C1.8335 9.73211 2.07412 8.54044 2.55537 7.42516C3.03662 6.30988 3.68975 5.33975 4.51475 4.51475C5.33975 3.68975 6.30988 3.03662 7.42516 2.55537C8.54044 2.07412 9.73211 1.8335 11.0002 1.8335C12.2682 1.8335 13.4599 2.07412 14.5752 2.55537C15.6904 3.03662 16.6606 3.68975 17.4856 4.51475C18.3106 5.33975 18.9637 6.30988 19.445 7.42516C19.9262 8.54044 20.1668 9.73211 20.1668 11.0002C20.1668 12.2682 19.9262 13.4599 19.445 14.5752C18.9637 15.6904 18.3106 16.6606 17.4856 17.4856C16.6606 18.3106 15.6904 18.9637 14.5752 19.445C13.4599 19.9262 12.2682 20.1668 11.0002 20.1668ZM11.0002 18.3335C13.0321 18.3335 14.7623 17.6193 16.1908 16.1908C17.6193 14.7623 18.3335 13.0321 18.3335 11.0002C18.3335 8.96822 17.6193 7.23801 16.1908 5.80954C14.7623 4.38107 13.0321 3.66683 11.0002 3.66683C8.96822 3.66683 7.23801 4.38107 5.80954 5.80954C4.38107 7.23801 3.66683 8.96822 3.66683 11.0002C3.66683 13.0321 4.38107 14.7623 5.80954 16.1908C7.23801 17.6193 8.96822 18.3335 11.0002 18.3335Z" fill="#FEF7FF"/>
</svg>
