<svg width="22" height="22" viewBox="0 0 22 22" fill="none" xmlns="http://www.w3.org/2000/svg">
<path d="M8.25 15.1252C7.60833 15.1252 7.06597 14.9036 6.62292 14.4606C6.17986 14.0175 5.95833 13.4752 5.95833 12.8335C5.95833 12.1918 6.17986 11.6495 6.62292 11.2064C7.06597 10.7634 7.60833 10.5418 8.25 10.5418C8.89167 10.5418 9.43403 10.7634 9.87708 11.2064C10.3201 11.6495 10.5417 12.1918 10.5417 12.8335C10.5417 13.4752 10.3201 14.0175 9.87708 14.4606C9.43403 14.9036 8.89167 15.1252 8.25 15.1252ZM4.58333 20.1668C4.07917 20.1668 3.64757 19.9873 3.28854 19.6283C2.92951 19.2693 2.75 18.8377 2.75 18.3335V5.50016C2.75 4.996 2.92951 4.5644 3.28854 4.20537C3.64757 3.84634 4.07917 3.66683 4.58333 3.66683H5.5V1.8335H7.33333V3.66683H14.6667V1.8335H16.5V3.66683H17.4167C17.9208 3.66683 18.3524 3.84634 18.7115 4.20537C19.0705 4.5644 19.25 4.996 19.25 5.50016V18.3335C19.25 18.8377 19.0705 19.2693 18.7115 19.6283C18.3524 19.9873 17.9208 20.1668 17.4167 20.1668H4.58333ZM4.58333 18.3335H17.4167V9.16683H4.58333V18.3335Z" fill="#FEF7FF"/>
</svg>
